<svg xmlns="http://www.w3.org/2000/svg" width="45.541" height="45.541" viewBox="0 0 45.541 45.541">
  <g id="Icon_ionic-ios-arrow-dropdown" data-name="Icon ionic-ios-arrow-dropdown" transform="translate(-3.375 -3.375)">
    <path id="Path_16" data-name="Path 16" d="M10.6,15.039a2.121,2.121,0,0,0,0,2.989L21.075,28.471a2.111,2.111,0,0,0,2.912.066L34.31,18.246a2.109,2.109,0,1,0-2.978-2.989l-8.867,8.736-8.878-8.966A2.111,2.111,0,0,0,10.6,15.039Z" transform="translate(3.68 6.148)" fill="#de0155"/>
    <path id="Path_17" data-name="Path 17" d="M3.375,26.146A22.771,22.771,0,1,0,26.146,3.375,22.767,22.767,0,0,0,3.375,26.146ZM39.764,12.527A19.26,19.26,0,1,1,12.527,39.764,19.26,19.26,0,1,1,39.764,12.527Z" fill="#de0155"/>
  </g>
</svg>
